<svg width="486" height="280" viewBox="0 0 486 280" fill="none" xmlns="http://www.w3.org/2000/svg">
<path d="M120.8 280H0.000460029V245.2V34.8V-1.90735e-05H121.2C178.4 -1.90735e-05 209.2 25.2 209.2 68C209.2 96.4 192 125.6 154.4 130.8C195.6 135.6 216.8 163.2 216.8 195.2C216.8 246.4 182.4 280 120.8 280ZM108.8 219.6C126.4 219.6 140 208.8 140 191.2C140 173.6 126.4 162.8 108.8 162.8H76.0005V219.6H108.8ZM102 106.8C122.8 106.8 131.2 96.4 131.2 81.2C131.2 66 122.8 55.6 102 55.6H76.0005V106.8H102ZM389.691 280H268.891V245.2V34.8V-1.90735e-05H390.091C447.291 -1.90735e-05 478.091 25.2 478.091 68C478.091 96.4 460.891 125.6 423.291 130.8C464.491 135.6 485.691 163.2 485.691 195.2C485.691 246.4 451.291 280 389.691 280ZM377.691 219.6C395.291 219.6 408.891 208.8 408.891 191.2C408.891 173.6 395.291 162.8 377.691 162.8H344.891V219.6H377.691ZM370.891 106.8C391.691 106.8 400.091 96.4 400.091 81.2C400.091 66 391.691 55.6 370.891 55.6H344.891V106.8H370.891Z" fill="white"/>
</svg>
